<svg id="wave" style="transform:rotate(180deg); transition: 0.3s" viewBox="0 0 1440 490" version="1.1" xmlns="http://www.w3.org/2000/svg"><defs><linearGradient id="sw-gradient-0" x1="0" x2="0" y1="1" y2="0"><stop stop-color="rgba(206, 171, 147, 1)" offset="0%"></stop><stop stop-color="rgba(206, 171, 147, 1)" offset="100%"></stop></linearGradient></defs><path style="transform:translate(0, 0px); opacity:1" fill="url(#sw-gradient-0)" d="M0,294L26.7,294C53.3,294,107,294,160,302.2C213.3,310,267,327,320,294C373.3,261,427,180,480,196C533.3,212,587,327,640,326.7C693.3,327,747,212,800,171.5C853.3,131,907,163,960,179.7C1013.3,196,1067,196,1120,196C1173.3,196,1227,196,1280,171.5C1333.3,147,1387,98,1440,130.7C1493.3,163,1547,278,1600,318.5C1653.3,359,1707,327,1760,310.3C1813.3,294,1867,294,1920,269.5C1973.3,245,2027,196,2080,179.7C2133.3,163,2187,180,2240,212.3C2293.3,245,2347,294,2400,334.8C2453.3,376,2507,408,2560,408.3C2613.3,408,2667,376,2720,334.8C2773.3,294,2827,245,2880,187.8C2933.3,131,2987,65,3040,40.8C3093.3,16,3147,33,3200,81.7C3253.3,131,3307,212,3360,228.7C3413.3,245,3467,196,3520,187.8C3573.3,180,3627,212,3680,261.3C3733.3,310,3787,376,3813,408.3L3840,441L3840,490L3813.3,490C3786.7,490,3733,490,3680,490C3626.7,490,3573,490,3520,490C3466.7,490,3413,490,3360,490C3306.7,490,3253,490,3200,490C3146.7,490,3093,490,3040,490C2986.7,490,2933,490,2880,490C2826.7,490,2773,490,2720,490C2666.7,490,2613,490,2560,490C2506.7,490,2453,490,2400,490C2346.7,490,2293,490,2240,490C2186.7,490,2133,490,2080,490C2026.7,490,1973,490,1920,490C1866.7,490,1813,490,1760,490C1706.7,490,1653,490,1600,490C1546.7,490,1493,490,1440,490C1386.7,490,1333,490,1280,490C1226.7,490,1173,490,1120,490C1066.7,490,1013,490,960,490C906.7,490,853,490,800,490C746.7,490,693,490,640,490C586.7,490,533,490,480,490C426.7,490,373,490,320,490C266.7,490,213,490,160,490C106.7,490,53,490,27,490L0,490Z"></path><defs><linearGradient id="sw-gradient-1" x1="0" x2="0" y1="1" y2="0"><stop stop-color="rgba(227, 202, 165, 1)" offset="0%"></stop><stop stop-color="rgba(255, 251, 233, 1)" offset="100%"></stop></linearGradient></defs><path style="transform:translate(0, 50px); opacity:0.9" fill="url(#sw-gradient-1)" d="M0,147L26.7,130.7C53.3,114,107,82,160,57.2C213.3,33,267,16,320,16.3C373.3,16,427,33,480,73.5C533.3,114,587,180,640,236.8C693.3,294,747,343,800,359.3C853.3,376,907,359,960,294C1013.3,229,1067,114,1120,57.2C1173.3,0,1227,0,1280,0C1333.3,0,1387,0,1440,0C1493.3,0,1547,0,1600,32.7C1653.3,65,1707,131,1760,163.3C1813.3,196,1867,196,1920,171.5C1973.3,147,2027,98,2080,138.8C2133.3,180,2187,310,2240,310.3C2293.3,310,2347,180,2400,179.7C2453.3,180,2507,310,2560,343C2613.3,376,2667,310,2720,310.3C2773.3,310,2827,376,2880,367.5C2933.3,359,2987,278,3040,253.2C3093.3,229,3147,261,3200,236.8C3253.3,212,3307,131,3360,147C3413.3,163,3467,278,3520,343C3573.3,408,3627,425,3680,424.7C3733.3,425,3787,408,3813,400.2L3840,392L3840,490L3813.3,490C3786.7,490,3733,490,3680,490C3626.7,490,3573,490,3520,490C3466.7,490,3413,490,3360,490C3306.7,490,3253,490,3200,490C3146.7,490,3093,490,3040,490C2986.7,490,2933,490,2880,490C2826.7,490,2773,490,2720,490C2666.7,490,2613,490,2560,490C2506.7,490,2453,490,2400,490C2346.7,490,2293,490,2240,490C2186.7,490,2133,490,2080,490C2026.7,490,1973,490,1920,490C1866.7,490,1813,490,1760,490C1706.7,490,1653,490,1600,490C1546.7,490,1493,490,1440,490C1386.7,490,1333,490,1280,490C1226.7,490,1173,490,1120,490C1066.7,490,1013,490,960,490C906.7,490,853,490,800,490C746.7,490,693,490,640,490C586.7,490,533,490,480,490C426.7,490,373,490,320,490C266.7,490,213,490,160,490C106.7,490,53,490,27,490L0,490Z"></path></svg>